<?xml version="1.0" standalone="no"?>
<!DOCTYPE svg PUBLIC "-//W3C//DTD SVG 20010904//EN"
 "http://www.w3.org/TR/2001/REC-SVG-20010904/DTD/svg10.dtd">
<svg version="1.0" xmlns="http://www.w3.org/2000/svg"
 width="1536.000000pt" height="1024.000000pt" viewBox="0 0 1536.000000 1024.000000"
 preserveAspectRatio="xMidYMid meet">

<g transform="translate(0.000000,1024.000000) scale(0.100000,-0.100000)"
fill="#000000" stroke="none">
<path d="M802 8239 c-313 -53 -570 -296 -653 -618 -19 -74 -20 -126 -21 -2201
l0 -2125 21 -90 c26 -110 102 -266 172 -353 93 -116 236 -209 393 -254 l81
-23 1995 0 1995 0 79 23 c280 81 495 301 569 582 l22 85 0 2140 0 2140 -22 81
c-84 304 -284 510 -578 596 l-80 23 -1960 1 c-1116 1 -1983 -2 -2013 -7z
m3984 -303 c180 -48 340 -221 386 -416 10 -44 13 -471 13 -2120 l0 -2065 -22
-70 c-40 -128 -111 -225 -213 -294 -99 -67 -150 -83 -300 -92 -177 -11 -1310
-11 -1310 -1 0 5 35 91 78 193 43 101 100 238 127 305 l49 121 72 12 c103 17
185 61 269 145 144 143 166 291 46 311 -55 9 -153 -26 -224 -81 -33 -25 -60
-44 -62 -42 -2 2 11 55 29 117 l32 115 74 18 c99 24 163 57 230 116 78 70 121
146 127 224 5 53 2 67 -15 88 -18 22 -28 25 -80 24 -68 -1 -135 -32 -209 -98
l-45 -40 6 35 c4 19 16 75 28 125 l21 92 40 6 c60 10 173 73 239 134 106 99
158 256 99 303 -55 45 -172 12 -269 -76 l-54 -48 7 34 c4 19 14 67 23 107 l17
73 50 17 c150 51 272 173 317 315 15 49 16 67 7 94 -13 41 -58 67 -99 58 -44
-10 -141 -77 -182 -126 l-36 -43 13 56 c23 101 34 123 68 141 61 33 116 146
117 239 1 154 -115 204 -199 87 -68 -93 -84 -215 -41 -300 17 -33 17 -41 3
-117 -8 -45 -19 -82 -23 -82 -5 0 -12 15 -15 33 -20 89 -101 198 -159 213 -35
8 -82 -20 -95 -57 -16 -46 -14 -151 5 -222 30 -117 106 -242 165 -273 35 -18
35 -24 7 -155 -15 -70 -24 -97 -29 -83 -58 160 -88 213 -139 239 -35 18 -79
19 -102 1 -97 -73 10 -419 165 -531 l27 -20 -20 -97 c-12 -54 -29 -121 -39
-150 l-18 -52 -6 57 c-22 182 -147 311 -249 256 -68 -36 -62 -239 13 -395 29
-62 103 -149 156 -185 l21 -14 -29 -115 c-16 -63 -33 -118 -37 -122 -5 -5 -14
26 -20 68 -29 184 -122 289 -226 254 -89 -29 -110 -221 -45 -414 36 -107 85
-173 158 -216 10 -6 0 -35 -47 -136 -34 -71 -103 -221 -155 -334 l-93 -205
-307 -3 c-169 -1 -307 1 -307 5 0 5 5 24 10 43 80 273 170 684 197 903 11 88
21 137 28 137 29 0 115 57 173 113 185 181 339 539 293 680 -52 156 -277 64
-394 -161 l-43 -82 3 98 c2 53 6 138 9 188 l6 92 57 21 c131 48 288 224 370
418 79 184 82 327 9 388 -28 24 -39 27 -85 23 -123 -10 -234 -133 -341 -378
-8 -19 -11 23 -11 182 l-1 206 30 10 c111 39 280 227 353 393 65 147 80 279
39 336 -27 38 -64 48 -127 32 -89 -22 -221 -176 -270 -314 -10 -27 -22 -54
-27 -59 -4 -6 -8 80 -8 191 l0 201 48 30 c113 73 216 237 262 416 37 144 21
251 -41 285 -36 20 -97 2 -149 -45 -41 -37 -109 -160 -131 -236 -7 -27 -16
-48 -20 -48 -4 0 -10 57 -14 126 l-7 126 31 31 c41 43 61 105 61 192 0 92 -22
161 -69 214 -46 54 -101 65 -154 32 -46 -28 -64 -57 -83 -133 -35 -134 16
-291 106 -328 26 -11 28 -17 39 -99 6 -48 11 -116 11 -152 l0 -64 -21 35 c-83
135 -174 210 -257 210 -33 0 -49 -6 -69 -26 -24 -24 -25 -29 -21 -115 4 -83 8
-96 52 -184 78 -153 201 -268 306 -285 l35 -5 3 -183 c3 -188 -7 -250 -26
-179 -18 66 -79 161 -139 218 -66 63 -83 74 -134 83 -104 18 -154 -64 -125
-204 46 -219 245 -464 409 -504 26 -6 27 -9 27 -64 0 -119 -13 -342 -20 -342
-5 0 -11 12 -15 27 -12 51 -75 168 -120 225 -102 130 -248 158 -300 58 -37
-71 -9 -242 63 -385 74 -148 215 -305 317 -351 l57 -27 -4 -196 c-2 -108 -8
-203 -12 -210 -6 -9 -17 10 -36 57 -75 194 -181 305 -291 306 -90 2 -140 -61
-147 -184 -13 -231 184 -590 377 -684 l43 -21 -6 -68 c-15 -164 -87 -454 -232
-934 l-25 -83 -335 0 c-202 0 -333 4 -329 9 18 30 51 311 61 531 7 139 8 142
32 151 158 60 339 378 308 540 -16 86 -97 114 -183 63 -60 -35 -146 -155 -179
-249 -7 -19 -22 90 -37 255 l-6 65 51 30 c143 85 281 327 282 497 1 57 -2 70
-24 93 -36 39 -92 31 -160 -23 -60 -48 -82 -75 -120 -144 -15 -27 -30 -46 -33
-42 -2 5 -10 69 -18 143 -12 130 -12 135 7 145 115 64 233 313 222 470 -4 49
-9 63 -32 83 -36 31 -73 29 -127 -7 -52 -34 -100 -97 -127 -165 l-19 -48 -16
109 c-19 124 -21 154 -8 154 5 0 36 27 69 59 98 98 162 254 162 392 0 58 -4
72 -26 98 -69 83 -188 -2 -244 -173 -15 -47 -23 -37 -40 56 -12 65 -11 69 15
123 24 49 27 64 23 123 -9 124 -69 219 -144 229 -143 19 -153 -262 -14 -390
32 -30 50 -54 50 -69 0 -13 9 -59 19 -103 11 -44 18 -81 16 -83 -2 -2 -20 14
-40 37 -20 22 -64 54 -97 71 -96 47 -149 39 -169 -28 -15 -50 -1 -101 50 -179
48 -75 128 -137 216 -168 36 -12 68 -24 70 -26 2 -3 11 -56 19 -119 9 -63 19
-128 22 -145 6 -27 1 -25 -51 33 -100 110 -199 148 -259 101 -22 -17 -26 -28
-26 -74 0 -65 23 -121 83 -200 80 -106 198 -185 278 -185 l36 0 6 -87 c4 -49
9 -126 13 -173 l6 -85 -32 54 c-40 67 -114 143 -168 170 -58 30 -126 28 -157
-4 -21 -20 -25 -34 -25 -85 0 -163 149 -374 313 -444 48 -20 69 -35 72 -50 4
-19 25 -260 25 -288 0 -6 -23 21 -50 61 -144 204 -342 210 -316 9 23 -171 196
-389 346 -437 34 -11 35 -12 32 -58 -11 -195 -65 -600 -82 -617 -5 -5 -171 -6
-387 -4 -375 5 -379 5 -458 31 -148 49 -255 138 -321 270 -69 135 -65 -21 -62
2259 l3 2063 23 70 c33 98 74 165 141 233 64 64 150 114 232 136 79 21 3906
23 3985 2z"/>
<path d="M7938 8163 l-148 -4 0 -129 0 -130 150 0 150 0 0 135 c0 74 -1 134
-2 133 -2 -1 -69 -4 -150 -5z"/>
<path d="M11634 8161 c-2 -2 -4 -62 -4 -133 l0 -128 140 0 141 0 -3 131 -3
131 -133 2 c-74 0 -136 -1 -138 -3z"/>
<path d="M6470 7330 l0 -830 140 0 140 0 0 300 0 300 208 0 c270 0 346 17 473
102 108 72 181 198 200 347 18 145 -15 292 -91 399 -49 70 -94 109 -175 150
-116 57 -156 62 -543 62 l-352 0 0 -830z m639 570 c81 -14 130 -39 174 -90 41
-49 62 -113 62 -195 0 -79 -25 -142 -78 -193 -67 -66 -103 -75 -324 -80 l-193
-4 0 279 c0 154 3 283 7 286 10 11 281 8 352 -3z"/>
<path d="M8649 7716 c-188 -40 -300 -152 -324 -323 l-7 -52 122 -3 c67 -2 128
1 136 5 8 4 14 17 14 29 0 40 42 97 88 119 60 30 162 36 234 15 89 -26 118
-72 134 -213 l7 -63 -61 0 c-110 0 -316 -21 -402 -41 -160 -37 -247 -101 -290
-215 -29 -79 -28 -209 3 -285 66 -158 188 -225 396 -217 145 6 204 30 294 120
l67 67 0 -42 c0 -23 3 -59 6 -79 l7 -38 129 0 c120 0 130 1 122 18 -5 9 -11
211 -15 447 -4 280 -10 445 -18 473 -37 136 -119 218 -264 264 -82 26 -284 33
-378 14z m401 -719 c0 -129 -59 -221 -179 -276 -147 -67 -301 -31 -328 77 -23
95 27 169 137 203 81 24 225 47 308 48 l62 1 0 -53z"/>
<path d="M9963 7712 l-442 -2 0 -110 0 -110 294 0 294 0 -261 -322 c-144 -178
-286 -352 -315 -388 l-53 -64 0 -108 0 -108 470 0 471 0 -3 108 -3 107 -302 2
c-167 1 -303 5 -304 8 0 4 73 97 163 208 136 166 387 479 432 536 12 15 18
240 7 244 -3 1 -205 1 -448 -1z"/>
<path d="M10614 7711 c-2 -2 -4 -53 -4 -113 l0 -108 285 0 c157 0 285 -2 285
-6 0 -3 -26 -36 -57 -73 -32 -37 -133 -162 -224 -277 -92 -115 -208 -258 -258
-319 l-91 -110 0 -102 0 -103 465 0 465 0 0 110 0 111 -296 -1 c-163 -1 -298
1 -301 4 -3 2 29 44 69 93 141 168 315 379 421 512 l107 133 0 124 0 124 -431
2 c-237 2 -433 1 -435 -1z"/>
<path d="M7805 7105 l0 -606 135 3 135 3 3 603 2 602 -137 0 -138 0 0 -605z"/>
<path d="M11640 7105 l0 -605 130 0 130 0 0 605 0 605 -130 0 -130 0 0 -605z"/>
<path d="M7643 6072 l-43 -3 0 -130 0 -129 135 0 135 0 0 129 0 130 -92 3
c-51 2 -112 2 -135 0z"/>
<path d="M12710 5955 l0 -125 134 0 133 0 6 39 c3 22 4 77 3 123 l-1 83 -137
3 -138 3 0 -126z"/>
<path d="M14322 5278 l3 -783 123 -3 122 -3 0 786 0 785 -125 0 -125 0 2 -782z"/>
<path d="M6480 5270 l0 -780 135 0 135 0 0 323 0 322 315 -3 315 -3 0 125 0
126 -315 0 -315 0 0 215 0 215 354 0 c195 0 356 3 358 8 2 4 2 58 0 120 l-3
112 -490 0 -489 0 0 -780z"/>
<path d="M8522 5650 c-74 -26 -114 -53 -167 -112 l-45 -50 0 77 c0 75 -1 77
-22 71 -13 -3 -68 -6 -123 -6 l-100 0 3 -570 2 -570 130 0 129 0 3 383 c3 379
3 382 27 430 28 57 87 110 140 125 96 29 203 1 247 -65 37 -56 44 -139 44
-516 l0 -357 125 0 125 0 0 379 c0 411 -7 504 -47 593 -28 63 -96 134 -159
166 -88 44 -224 54 -312 22z"/>
<path d="M9528 5654 c-170 -41 -281 -160 -295 -315 l-6 -59 127 0 c123 0 126
1 126 22 0 39 40 106 78 130 28 17 55 23 121 26 75 3 92 0 130 -20 59 -31 85
-80 89 -175 5 -84 14 -78 -138 -88 -116 -8 -293 -31 -340 -44 -65 -19 -144
-74 -177 -124 -87 -130 -64 -351 49 -452 75 -68 115 -80 268 -80 128 0 138 1
193 28 31 16 80 51 108 78 28 27 52 49 53 49 2 0 4 -28 5 -62 1 -35 6 -67 10
-71 4 -4 59 -6 122 -5 108 3 114 4 111 23 -2 11 -6 211 -10 445 l-8 425 -28
62 c-67 146 -222 224 -441 222 -49 0 -116 -7 -147 -15z m370 -716 c-9 -163
-99 -253 -262 -265 -61 -4 -77 -1 -116 19 -58 30 -83 75 -77 142 4 42 10 55
45 87 25 24 60 44 94 53 51 15 232 43 292 45 l29 1 -5 -82z"/>
<path d="M10828 5656 c-26 -8 -67 -26 -92 -40 -42 -25 -114 -98 -118 -120 -1
-6 -4 23 -7 64 l-6 74 -120 0 -120 -1 1 -36 c0 -20 1 -278 2 -572 l2 -535 124
0 125 0 3 383 c3 365 4 384 24 427 43 90 124 140 228 140 83 0 134 -32 171
-105 l30 -60 3 -392 3 -393 125 0 124 0 0 408 c0 434 -6 495 -50 582 -34 67
-108 134 -176 160 -74 28 -208 36 -276 16z"/>
<path d="M11907 5654 c-86 -20 -160 -59 -221 -115 -117 -107 -165 -228 -173
-434 -12 -308 102 -520 326 -606 70 -27 247 -37 347 -20 183 32 324 167 356
339 6 34 10 64 7 66 -2 2 -60 5 -129 7 l-125 4 -6 -35 c-18 -111 -129 -181
-263 -167 -147 15 -236 131 -252 328 -8 90 15 218 51 289 58 114 186 166 317
130 66 -19 125 -87 148 -170 l6 -25 120 4 c65 1 122 6 126 9 11 12 -11 104
-41 169 -72 154 -242 244 -456 242 -44 0 -106 -7 -138 -15z"/>
<path d="M13488 5654 c-109 -26 -209 -92 -252 -167 -25 -42 -56 -147 -56 -186
0 -20 5 -21 120 -21 88 0 122 3 124 13 3 6 7 24 10 40 9 39 71 104 112 117 47
16 160 16 205 2 75 -26 119 -102 119 -205 l0 -64 -77 -2 c-120 -2 -337 -30
-406 -51 -87 -27 -152 -71 -187 -127 -42 -66 -53 -114 -48 -218 7 -142 60
-224 183 -282 56 -26 69 -28 190 -28 124 0 133 1 190 29 33 17 81 51 108 78
26 26 50 48 52 48 3 0 5 -24 5 -54 0 -89 -4 -86 132 -86 l120 0 -6 34 c-4 19
-7 176 -7 348 -1 409 -9 511 -43 582 -72 148 -216 217 -446 215 -47 0 -111 -7
-142 -15z m382 -690 c0 -88 -18 -139 -66 -193 -59 -66 -126 -94 -224 -95 -88
-1 -124 13 -157 63 -60 89 -5 202 118 240 44 14 216 38 282 40 l47 1 0 -56z"/>
<path d="M7604 5625 c-2 -5 -3 -262 -2 -570 l3 -560 123 -3 122 -3 0 573 0
573 -121 0 c-72 0 -123 -4 -125 -10z"/>
<path d="M12720 5060 l0 -570 125 0 125 0 0 570 0 570 -125 0 -125 0 0 -570z"/>
<path d="M12670 4030 l0 -131 131 3 130 3 0 125 0 125 -130 3 -131 3 0 -131z"/>
<path d="M6885 4098 c-22 -67 -195 -565 -381 -1096 -79 -227 -144 -417 -144
-423 0 -6 54 -8 143 -7 l142 3 61 185 60 185 293 0 294 0 48 -150 c27 -82 54
-167 59 -187 l11 -38 149 0 c83 0 150 2 150 4 0 2 -63 185 -141 407 -77 222
-160 460 -184 529 -24 69 -84 240 -133 380 l-90 255 -160 3 -160 2 -17 -52z
m284 -570 l110 -328 -220 0 c-207 0 -221 1 -214 18 10 27 159 477 185 564 14
42 25 76 26 75 1 -1 52 -149 113 -329z"/>
<path d="M10177 3373 c2 -428 6 -783 8 -790 3 -8 38 -11 122 -10 l118 2 -1 28
c0 15 -1 369 -2 787 l-2 760 -124 0 -124 0 5 -777z"/>
<path d="M8333 3726 c-65 -21 -128 -62 -167 -107 l-35 -41 -3 67 -3 67 -115 0
-115 -1 1 -30 c0 -17 1 -274 2 -571 l2 -540 125 0 125 0 0 353 c0 385 7 451
56 514 74 97 244 109 326 23 55 -58 59 -92 58 -514 l-1 -371 127 0 127 0 -2
425 c-1 234 -4 441 -8 460 -18 108 -104 213 -202 251 -71 27 -235 36 -298 15z"/>
<path d="M9380 3733 c-54 -8 -147 -47 -191 -79 -77 -56 -119 -132 -134 -242
l-7 -53 122 3 123 3 13 45 c25 87 97 130 219 130 130 0 195 -68 195 -206 l0
-71 -132 -7 c-363 -19 -515 -86 -563 -248 -22 -75 -19 -175 6 -245 28 -76 113
-162 184 -187 113 -38 279 -30 376 19 26 14 71 47 98 75 l51 51 0 -38 c0 -21
3 -55 6 -76 l7 -38 111 2 112 2 -3 281 c-6 568 -7 595 -33 660 -40 104 -131
176 -267 211 -53 14 -227 19 -293 8z m341 -665 c3 -97 -11 -154 -54 -209 -56
-74 -164 -113 -269 -99 -67 10 -102 34 -124 87 -30 70 -6 144 58 183 49 30
227 65 346 69 41 1 42 0 43 -31z"/>
<path d="M11972 3729 c-112 -22 -223 -102 -269 -194 -34 -66 -42 -169 -19
-249 39 -134 148 -194 446 -246 128 -22 180 -63 180 -140 0 -102 -116 -167
-252 -142 -100 19 -160 71 -178 157 l-6 30 -99 -2 c-55 -1 -108 -2 -118 -2
-17 -1 -18 -7 -12 -53 31 -230 205 -348 490 -335 131 6 193 24 273 77 101 68
146 156 147 285 1 210 -90 286 -405 340 -128 22 -191 51 -214 100 -49 103 30
194 169 195 105 0 153 -34 193 -140 9 -25 9 -25 127 -22 l117 3 -6 52 c-20
148 -120 248 -285 283 -72 15 -211 17 -279 3z"/>
<path d="M13405 3726 c-163 -40 -259 -134 -286 -281 -18 -97 11 -202 73 -265
58 -60 140 -94 317 -130 217 -44 246 -62 246 -155 0 -84 -51 -128 -162 -140
-123 -14 -229 47 -257 150 l-11 39 -113 1 -112 0 0 -35 c0 -51 24 -134 54
-184 74 -126 227 -185 451 -173 263 14 418 162 402 387 -11 170 -102 256 -309
295 -239 44 -278 61 -312 128 -23 48 -15 100 23 138 70 70 252 63 305 -12 9
-13 19 -41 23 -61 l6 -38 120 0 120 0 -7 54 c-8 74 -30 120 -82 176 -49 52
-130 94 -214 110 -70 13 -213 11 -275 -4z"/>
<path d="M10550 3710 c0 -6 102 -280 279 -753 l143 -377 -18 -53 c-23 -70 -58
-124 -97 -148 -27 -17 -45 -20 -123 -17 l-92 4 5 -111 c3 -60 7 -112 10 -115
2 -3 46 -7 97 -8 171 -7 281 43 359 161 44 66 57 98 162 402 46 132 98 281
115 330 38 105 229 653 236 675 4 13 -13 15 -128 12 -73 -2 -134 -5 -136 -7
-2 -1 -43 -139 -93 -306 -49 -167 -106 -359 -126 -426 -19 -68 -40 -123 -44
-123 -5 0 -9 7 -9 15 0 8 -44 151 -99 318 -54 167 -113 352 -132 412 -18 61
-33 111 -34 113 -4 5 -275 7 -275 2z"/>
<path d="M12687 3710 c-1 -3 -1 -261 1 -573 l3 -568 127 3 127 3 -2 35 c0 19
-1 276 -2 570 l-1 535 -126 0 c-69 0 -127 -2 -127 -5z"/>
</g>
</svg>
